<svg width="149" height="12" viewBox="0 0 149 12" fill="none" xmlns="http://www.w3.org/2000/svg">
<g clip-path="url(#clip0_337_6000)">
<path d="M34.408 11.5C34.0348 11.8333 34.5438 11.6 35.0188 11.5H34.408Z" fill="#EFA425"/>
<path d="M39.0569 11.4667C38.1407 11.7667 37.021 11.5 36.4441 11.9C37.3942 12.0667 38.8194 11.9 39.0569 11.4667Z" fill="#EFA425"/>
<path d="M37.6658 11.3333L37.564 11.5333L38.3444 11.2L37.6658 11.3333Z" fill="#EFA425"/>
<path d="M37.0549 11.2L37.1907 11.2667L38.4462 10.9667L37.0549 11.2Z" fill="#EFA425"/>
<path d="M42.2127 11.4333L41.2965 11.5333C40.4142 11.3333 41.8394 11.1333 41.2626 11C40.1088 11.0667 40.8893 11.5667 39.4302 11.6C39.5659 11.8333 41.7716 11.4333 41.534 11.8667C42.7556 11.9 41.568 11.6333 42.2127 11.4333Z" fill="#EFA425"/>
<path d="M98.1003 5.7C98.1003 5.7 98.2021 5.7 98.2361 5.7C98.1682 5.66667 98.1343 5.63333 98.1003 5.7Z" fill="#EFA425"/>
<path d="M113.438 4.43334C113.642 4.43334 113.879 4.46667 114.083 4.46667C114.015 4.43334 113.947 4.4 113.811 4.36667L113.438 4.43334Z" fill="#EFA425"/>
<path d="M88.5651 7.06667C88.3276 7.06667 88.124 7.03333 87.9543 7C88.0561 7.03333 88.2597 7.06667 88.5651 7.06667Z" fill="#EFA425"/>
<path d="M111.3 2C111.3 2 111.368 1.93333 111.368 1.9L111.198 2H111.3Z" fill="#EFA425"/>
<path d="M130.574 2.73333C130.812 2.73333 131.05 2.7 131.253 2.63333C130.846 2.63333 130.642 2.66667 130.574 2.73333Z" fill="#EFA425"/>
<path d="M56.4646 10.9333C56.7361 10.9333 56.9397 10.9333 57.1433 10.8667C56.9736 10.8333 56.77 10.8333 56.4646 10.9333Z" fill="#EFA425"/>
<path d="M65.4907 10.3667H65.4229C65.4229 10.3667 65.4907 10.4333 65.4907 10.3667Z" fill="#EFA425"/>
<path d="M57.1433 10.8667C57.6184 11 57.788 11.4667 58.331 10.8667L58.1952 10.8C58.5685 10.9 59.0775 10.6667 59.4847 10.6C59.4508 10.5667 59.3829 10.5 59.315 10.4667C59.1114 10.4667 58.84 10.4667 58.4328 10.4667C57.9238 10.4 57.6184 10.6667 57.1433 10.8V10.8667Z" fill="#EFA425"/>
<path d="M94.2661 6.5H93.825C93.825 6.5 94.0964 6.53333 94.2661 6.5Z" fill="#EFA425"/>
<path d="M37.6997 2.46667C38.0729 2.4 38.2765 2.53333 38.6159 2.53333C39.3624 2.13333 37.0549 2.63333 38.1069 2.23333C37.7675 2.23333 37.4961 2.33333 37.2585 2.4L37.7675 2.7C38.4123 2.53333 37.3264 2.6 37.6657 2.46667H37.6997Z" fill="#EFA425"/>
<path d="M106.855 1.23333H107.025C107.025 1.23333 107.025 1.06667 106.414 0.966667C105.905 1.2 106.685 1.56667 105.803 1.83333C105.973 1.83333 106.21 1.83333 106.482 1.83333C106.109 1.63333 106.482 1.4 106.855 1.23333Z" fill="#EFA425"/>
<path d="M106.448 1.86667L106.584 1.96667C106.719 1.96667 106.821 1.96667 106.923 2C106.821 1.93333 106.652 1.9 106.414 1.86667H106.448Z" fill="#EFA425"/>
<path d="M49.644 1.83333C49.644 1.83333 49.9155 1.83333 50.0512 1.83333C49.8476 1.76667 49.7458 1.8 49.644 1.83333Z" fill="#EFA425"/>
<path d="M129.76 7.16667C129.76 7.16667 129.421 7.26667 129.285 7.3C129.556 7.26667 129.692 7.2 129.76 7.16667Z" fill="#EFA425"/>
<path d="M115.338 1.7C115.338 1.7 115.61 1.73333 115.779 1.76667C115.881 1.76667 115.949 1.76667 116.051 1.76667L115.372 1.7H115.338Z" fill="#EFA425"/>
<path d="M87.0722 4.93333C87.3776 4.53333 86.8346 4.96667 86.2238 4.76667L85.6809 4.96667C86.1899 5.03333 86.665 4.96667 87.0722 4.96667V4.93333Z" fill="#EFA425"/>
<path d="M70.5129 5.43333C70.5129 5.43333 70.3433 5.43333 70.2415 5.4C70.3093 5.4 70.3772 5.43333 70.5129 5.43333Z" fill="#EFA425"/>
<path d="M109.807 2.03333H111.945L111.334 1.96667C111.029 2.16667 110.113 1.8 109.807 2.03333Z" fill="#EFA425"/>
<path d="M96.1662 5.06667L96.3698 5.3C98.4737 4.8 100.917 5.5 102.614 4.8C105.192 5.66667 104.31 4.06667 106.685 4.83333L106.618 4.7C114.422 4.86667 122.668 5.53333 129.964 5.4V5.56667C136.275 5.96667 142.485 6.23333 148.729 6.56667V1.43333C143.401 1.8 138.074 2.2 132.712 2.46667C131.626 2.7 132.305 3 131.389 3.26667C130.982 3.26667 130.065 3.36667 130.031 3.16667C130.812 3 130.371 2.86667 130.608 2.76667C129.285 2.86667 127.588 2.76667 126.435 3.06667L127.419 3.26667C126.977 3.4 126.265 3.36667 125.824 3.4C125.993 3.26667 125.383 3 125.722 2.93333C123.313 3.73333 123.788 2.76667 121.718 3.16667C121.345 3.76667 118.766 4.36667 117.103 4.9L116.187 4.8C117.374 4.73333 116.153 4.4 117.612 4.33333C116.356 4.26667 115.237 4.56667 114.049 4.56667C114.286 4.7 114.253 4.86667 113.777 4.96667C113.065 4.96667 112.963 4.66667 112.149 4.7L112.963 4.46667C112.42 4.3 111.945 4.6 111.436 4.66667C111.266 4.43333 110.011 4.46667 110.215 4.2C109.129 4.6 108.721 4.43333 107.568 4.7C108.823 4.86667 107.262 5.03333 107.432 5.2L108.823 5.03333C106.855 5.03333 109.468 4.96667 109.298 4.56667C110.248 4.7 108.077 5.3 109.604 5.13333C107.771 5.46667 107.364 5.3 105.498 5.76667C106.618 5.63333 105.294 6.03333 105.905 6.13333C104.446 6.23333 105.532 6.03333 105.057 5.8C104.276 5.86667 103.971 5.66667 103.258 6C101.969 5.96667 103.428 5.7 102.783 5.56667C103.224 5.26667 106.346 5.66667 105.939 4.83333C106.618 4.76667 107.398 4.4 108.348 4.36667C107.5 4.3 106.278 4.1 105.26 4.36667V4.86667C104.446 4.93333 104.31 5.26667 103.733 5.26667C104.039 5.1 103.462 4.93333 102.851 5C103.021 5.06667 103.292 5 103.224 5.1C102.037 5.2 101.901 5.56667 100.51 5.73333C101.663 5.8 101.935 5.93333 103.021 6.06667C102.749 6.43333 102.274 6.16667 101.629 6.23333C101.731 6.16667 101.867 6.16667 101.629 6.1L100.951 6.3C99.4917 6.23333 101.087 5.8 99.8989 5.7C99.0505 5.46667 98.7791 5.93333 98.1344 5.8C98.1683 5.8 98.2361 5.86667 98.2701 5.86667C98.1343 5.86667 98.0326 5.86667 97.9647 5.86667C97.2182 6 96.3698 6 96.2002 6.3C96.0984 6.2 95.5215 6.36667 95.284 6.46667C94.8768 6.6 93.8588 6.96667 93.2141 6.6H93.248C92.2979 6.6 91.5513 6.53333 91.7549 6.36667H90.228L90.3637 6C88.9724 6.16667 89.1421 6.36667 88.192 6.76667C87.174 6.63333 85.4434 6.9 84.7987 7.06667C84.6969 7.06667 84.5272 7.06667 84.2557 7.1L84.8326 7.2C83.7467 7.26667 83.8825 7.43333 83.1699 7.46667C83.3056 7.46667 83.3395 7.5 82.9324 7.46667C82.7966 7.46667 82.6948 7.46667 82.5251 7.46667C82.5251 7.43333 82.7288 7.43333 82.8984 7.43333L82.7627 7.33333C81.8804 7.03333 81.4393 7.63333 80.4892 7.56667C80.591 7.56667 80.7267 7.5 80.8285 7.5C80.2856 7.43333 79.5051 7 79.3015 7.33333C79.1658 7.33333 78.9961 7.36667 78.8264 7.46667H78.4532C78.4532 7.46667 78.7246 7.46667 78.8264 7.46667C78.5889 7.56667 78.3853 7.7 78.3514 7.63333H76.9941C76.7226 7.63333 76.3833 7.7 76.1118 7.76667L75.8743 7.63333C75.3992 7.7 75.3653 7.63333 75.4331 7.56667C73.7026 7.2 72.8203 7.96667 70.9879 7.66667C70.6486 7.93333 71.429 7.96667 71.4969 8.1C71.2254 8.3 70.1735 8.53333 69.6645 8.7C68.8162 8.43333 66.3052 8.3 66.6784 7.8C65.1854 7.86667 67.1535 8.06667 66.407 8.26667H66.2373C66.7463 8.26667 67.1874 8.4 67.4928 8.56667C67.6285 8.8 66.3052 8.96667 65.898 8.93333L66.1694 8.56667C64.7782 8.76667 65.1175 9.3 64.2692 9.7C63.1494 9.63333 63.7602 9.26667 63.5226 8.96667L62.3689 9.13333V8.86667C61.5885 9 61.4527 9.23333 60.4008 9.2C61.1473 8.9 58.806 9.06667 59.8239 8.63333C59.2471 8.56667 59.1113 9.1 58.772 8.76667C58.3988 9.06667 59.3149 8.86667 59.5864 8.93333C59.8579 9.33333 58.3309 9.2 57.6183 9.36667C57.5504 9.16667 58.0594 9.1 57.245 9C57.0754 9.16667 56.5664 9.33333 56.0913 9.16667C56.0913 9.43333 55.1751 9.26667 54.7001 9.3C55.243 9.3 55.9895 9.46667 55.6841 9.73333C55.2769 9.86667 54.9376 9.93333 54.0214 9.96667L54.6661 10.0667C53.8857 10.5 53.3088 9.86667 52.2229 10.0667C52.6641 9.86667 52.9695 9.86667 53.3767 9.63333C52.8677 9.8 51.8836 10.0667 51.0692 10.2333L50.1191 9.9C50.0173 10.1 49.0672 9.93333 49.1011 10.2333C47.9474 10.1333 50.0173 9.86667 50.1191 9.63333C48.66 9.53333 48.9993 10.1667 47.5741 9.83333L48.0152 9.56667C47.5402 9.56667 46.624 9.76667 46.5561 9.66667C46.5561 9.76667 46.7937 9.7 47.0991 9.66667C46.8615 10.2333 44.9952 10.1667 45.1988 10.7333H45.8435C44.8595 10.9 44.1808 11.3333 43.4343 11.1667C42.8574 11.0333 43.8075 10.7667 44.1469 10.6C43.2307 10.6 43.4343 11.2667 42.3145 11.2667C42.8914 11.3333 42.7896 11.5333 42.4502 11.7C43.095 11.7 44.4183 11.7 44.1808 11.5H43.9433C43.9772 11.3 44.3505 11.2333 44.5201 11.1667C45.4024 11.1 44.9273 11.4 45.1309 11.5C46.5901 11.5 45.1988 10.9333 46.5561 10.8667L46.7258 10.9667C47.3705 10.7667 48.3546 10.7 48.4903 10.3333C49.1011 10.6667 49.9834 10.1 50.6281 10.2667C50.7978 11.0333 48.3546 10.3667 47.642 10.8333C48.3546 10.9333 47.2687 11.2333 46.9973 11.4333L49.169 10.9667C49.3386 11.0667 50.0173 11.4 50.3906 11.1H50.2209C51.1032 10.9333 50.8317 10.6333 51.5782 10.7C51.7139 10.7667 51.4764 10.9 51.4086 10.9667C52.1211 10.9667 51.9854 10.7667 52.4265 10.6333C53.1391 10.6333 52.0872 10.9667 52.698 11.0333C53.4785 10.6667 53.9875 11.0333 54.6661 10.9667C54.3268 10.5333 57.4147 10.1667 55.8877 9.9L57.5504 9.5C58.0934 9.7 56.4306 10.2 56.9396 10.5333L55.6162 10.6C55.8877 11.1333 58.3988 10.0667 59.3149 10.6C60.0275 10.6 59.8579 10.5 61.2152 10.7L60.9437 10.2333C61.6563 10.3 61.8939 10.5667 61.9278 10.6333C62.335 10.5667 62.7083 10.5667 63.0815 10.5667C62.9797 10.6333 62.844 10.7333 62.6065 10.7667C63.1494 11 63.2851 10.9 63.4887 10.7667C63.7602 10.6333 64.2013 10.6 64.6424 10.6L64.2692 10.8C64.5406 10.7333 64.846 10.6667 64.88 10.5667C65.0496 10.5667 65.2193 10.5333 65.389 10.5C65.2532 10.4333 64.9478 10.1667 64.3031 10.0667C65.9319 10.1667 67.2213 9.96667 68.6465 10.3C68.6126 10.4333 68.0357 10.6667 68.2054 10.6667C68.918 10.6667 69.6306 10.4 69.5627 10.2C69.7324 10.2 69.8342 10.2 69.936 10.1667C70.0717 10.2667 70.2414 10.4 70.5807 10.4C70.6486 10.4333 70.7843 10.4667 71.0219 10.4667C71.2254 10.0667 72.5828 10.1667 72.8542 9.96667C72.5488 9.96667 72.1416 9.96667 71.7684 10C72.3113 9.7 72.7864 9.36667 73.2275 9.56667C72.2095 9.86667 74.3812 9.9 72.7864 10.1C73.9062 10.5333 73.3293 9.7 74.517 9.8L75.2974 9.93333C75.1956 10.2333 74.0758 10.1667 74.2794 10.2667L74.7884 10.2C74.2794 10.4333 72.2774 10.4333 71.0897 10.8333H73.5329C76.5869 10.3 80.4552 10.4333 83.0341 9.63333H82.9324C82.9324 9.63333 83.0002 9.56667 83.0341 9.46667L83.1699 9.53333L83.6789 9.3C84.2897 9.53333 85.3755 9.5 86.3257 9.66667C85.9185 9.57778 85.6922 9.46667 85.647 9.33333C85.7488 9.03333 85.8167 8.9 86.6989 8.96667C86.6989 9.16667 86.1899 9.2 86.8346 9.33333C86.4953 9.26667 86.7668 9.1 87.174 9.03333C87.683 9.13333 88.4974 9.1 88.5313 9.3C88.2938 9.36667 88.1241 9.3 87.9544 9.3C87.7169 9.36667 88.9046 9.43333 88.2259 9.63333L89.1082 9.53333C89.6511 9.66667 88.7688 9.83333 89.0064 9.93333C90.4655 9.7 91.212 9.2 92.5354 8.96667C92.4675 9.06667 92.5015 9.53333 92.5015 9.4C93.5534 9.46667 94.6732 8.76667 95.8269 8.66667C95.6572 8.8 95.2161 8.8 94.8768 8.86667C98.4737 8.8 101.392 8.63333 104.785 8.86667L105.634 8.33333L106.516 8.6C110.079 8.66667 112.76 8.2 116.119 7.83333C117.171 7.73333 116.764 8.13333 117.273 8.23333C119.58 8.13333 120.089 7.56667 122.261 7.33333C121.955 7.5 121.48 7.93333 122.43 7.9C122.6 7.76667 122.702 7.53333 123.313 7.56667L123.007 7.73333C123.55 7.9 124.059 7.66667 125.213 7.7C127.215 7.56667 129.081 7.1 130.676 6.5C132.441 6.43333 130.54 7 130.88 7.1C129.624 7 130.031 7.23333 129.76 7.4C130.405 7.23333 131.185 7.1 131.558 7.4C132.475 7.33333 132.882 7.3 133.764 7.03333C133.323 7.16667 132.916 7.03333 133.323 6.83333C134.069 6.9 135.97 6.66667 135.902 7.06667C140.008 6.73333 144.555 6.5 148.966 6.23333V2L148.22 1.96667C147.439 2.13333 148.796 2.06667 148.355 2.2C147.202 2.43333 147.473 2 146.523 2.2L146.896 2C145.539 1.9 144.08 2.23333 142.756 2.36667C142.994 2.13333 141.704 2.1 142.756 2C142.112 2 141.399 0.8 140.89 1.03333L141.569 2.16667C141.569 2.16667 140.619 2.16667 140.72 2.23333C140.177 2 139.499 1.7 139.092 1.7C138.922 1.43333 139.906 1.53333 140.415 1.56667C140.517 1.1 138.616 1.2 139.431 0.8C138.277 0.8 139.567 1.03333 138.888 1.16667L137.904 1.03333L138.684 1.23333C137.836 1.33333 137.531 1.66667 136.445 1.36667L135.257 1.76667C135.155 1.4 134.409 1.66667 133.832 1.56667L134.205 1.36667C133.425 1.36667 133.119 1.26667 132.61 1.13333C133.085 0.833333 133.323 1.23333 133.527 0.933333L132.678 0.8C132.678 1 132.101 1.13333 132.746 1.3C131.932 1.63333 131.457 1.93333 129.455 1.83333C128.538 1.46667 130.439 1.56667 130.065 1.2C127.962 1 127.453 2.03333 126.231 1.93333C124.67 1.73333 124.738 2.06667 123.177 2.03333C123.686 1.8 122.091 1.73333 121.786 1.5L122.43 1.26667C121.955 1.33333 121.48 1.23333 121.65 1.03333C121.718 1.36667 119.58 1.26667 118.494 1.4L118.664 1.66667C117.816 1.73333 116.628 1.9 115.712 1.8C114.354 1.86667 114.66 2.1 113.608 2.4C113.031 2.13333 113.099 1.86667 113.302 1.56667C113.676 1.7 114.286 1.63333 114.863 1.73333C116.56 1.53333 117.917 0.966666 119.614 1.13333C120.361 0.5 118.46 1.2 117.646 0.933333C117.646 0.9 117.748 0.866666 117.782 0.866666C117.714 0.866666 117.646 0.866666 117.578 0.866666C118.189 0.8 119.173 0.7 119.343 0.366666C118.325 0.4 118.596 1 117.34 0.7C116.39 0.866666 115.644 0.333333 115.067 0.266666C114.422 0.5 114.388 1.03333 112.861 0.9L113.54 0.533333C111.809 0.5 112.726 1.06667 111.097 1.03333C111.674 1.06667 110.554 1.4 111.606 1.4C111.063 1.6 109.909 1.63333 109.027 1.5C108.789 1.56667 108.993 1.63333 108.925 1.76667C109.875 2.03333 110.452 1.53333 111.233 1.9L111.911 1.5C112.793 1.66667 112.895 2 112.352 2.13333C112.59 2.13333 112.827 2.06667 113.031 2.13333C113.167 2.73333 111.945 1.9 111.64 2.4H112.284C112.556 2.76667 110.791 2.7 109.977 2.66667C109.061 2.46667 108.212 2.4 108.145 2.1L109.4 2C108.755 1.76667 107.805 2.13333 107.093 2.1C107.059 2.06667 106.991 2.03333 106.889 2C106.923 2 106.957 2.06667 106.957 2.06667C106.787 2.06667 106.652 2 106.55 1.93333C105.905 1.93333 104.989 2.06667 104.378 1.96667L104.446 2.23333L104.514 2.1C105.091 2.1 105.871 2.26667 105.43 2.46667C104.107 2.63333 103.869 2.13333 103.53 1.93333C103.835 1.53333 104.819 1.93333 105.464 1.83333C105.057 1.43333 104.141 1.76667 102.783 1.5C103.326 1.1 104.344 1.5 104.649 1.13333C103.564 1.06667 103.258 1.33333 102.105 1.23333C102.24 1.03333 103.36 1.03333 103.292 0.766667L102.546 0.633333C104.378 0.633333 102.24 0.0999998 103.632 -1.78814e-07C102.953 -0.166667 102.681 0.333333 101.731 0.0666665C102.003 0.233333 102.749 0.6 101.833 0.733333L100.815 0.6C100.374 0.4 101.901 0.133333 101.222 -0.0333335L100.136 0.0999998C100.136 0.0999998 100.679 0.3 100.374 0.466667C99.7631 0.333333 99.3559 0.966666 98.6094 1.13333C98.0326 1.13333 97.5575 1.1 97.3539 0.966666C95.8948 1.33333 94.0285 1.33333 92.6711 1.7C93.5873 1.43333 92.6372 1.26667 92.0603 1.1C93.1123 1.03333 93.1123 0.633333 93.0444 0.4C92.3997 0.433333 91.9925 0.866667 92.2979 1C91.212 0.866667 91.5513 1.3 90.6012 1C89.9904 0.866667 90.9066 0.6 90.703 0.466667C89.5493 0.466667 90.3976 0.933333 89.1082 0.866666C89.176 0.8 89.2778 0.8 89.176 0.733333C88.4974 0.666667 87.7508 0.866666 87.6151 1.06667C86.8686 0.566666 85.5452 1.16667 85.6809 0.633333C84.0182 0.8 85.9185 0.9 85.6131 1.06667C84.9344 1.3 83.6789 1.13333 83.3056 1.06667C83.7128 1.06667 84.0861 0.9 84.4933 0.966666L84.1539 0.633333C82.084 0.433333 82.8645 1.43333 80.8624 1.2C81.8804 1 81.2018 0.933333 81.7108 0.666667C81.4054 0.766667 79.8444 0.7 80.7946 0.933333C80.048 0.933333 79.539 0.866666 78.9961 0.833333C78.3514 0.966666 77.6049 1.1 77.2316 1.33333C76.1797 1.33333 75.3992 1.1 74.8902 0.966666C72.6846 1.26667 70.6486 0.966666 68.3411 1.3H68.5108C66.7124 1.3 69.3252 1.73333 67.4589 1.8C67.6964 1.36667 66.3391 1.56667 65.7283 1.36667C63.4208 1.23333 61.7921 1.86667 59.6543 1.66667C59.6543 1.56667 59.79 1.46667 60.1972 1.43333C58.5684 1.36667 57.279 1.53333 55.8198 1.56667L55.8877 1.5C53.5463 1.26667 51.4425 1.83333 49.0332 2.06667C49.2368 2 49.2708 1.83333 49.4065 1.76667C48.1849 1.76667 46.2507 1.76667 45.4024 2.23333C43.9433 1.93333 44.4523 2.43333 42.586 2.16667C42.4842 2.1 42.7556 2.1 42.8914 2.06667C41.9752 2 41.3304 2.06667 40.4142 2.06667C38.4122 2.5 37.9371 3.03333 35.5618 3.06667C35.3922 2.5 36.987 2.8 37.0209 2.33333C36.5459 2.46667 36.1726 2.63333 35.494 2.53333C35.8672 2.26667 35.5618 2.4 35.8333 2.16667C35.3243 2.06667 33.8652 2.93333 33.8652 2.86667C33.8652 2.96667 34.0348 3.03333 34.476 2.96667C33.967 3.36667 32.1685 3.2 31.0148 3.43333C31.3881 3.43333 32.5757 3.43333 32.1346 3.73333C30.5737 3.73333 30.1325 4.33333 29.0806 4.63333C27.6554 4.5 30.0647 4.06667 29.7932 3.7C29.5557 3.56667 28.9449 3.3 29.5217 3.1C28.2323 3.1 27.35 3.53333 26.2302 3.73333V3.63333C24.6693 3.83333 23.0405 4.46667 21.6832 4.36667L22.3958 4.43333C22.1583 4.53333 21.3439 4.56667 20.9367 4.83333C20.9367 4.63333 19.9187 4.56667 20.3259 4.36667C19.6812 5.03333 16.7629 5.06667 16.0503 5.73333C15.6092 5.63333 15.9146 5.33333 16.0503 5.2C17.0683 5.13333 17.4076 5.23333 17.9166 4.93333C17.1022 5.03333 16.4575 4.93333 16.5932 4.8C15.8128 5.26667 13.8447 5.63333 13.4714 6.03333C12.8606 5.9 12.2498 5.86667 12.4195 5.53333C9.90843 6 13.7768 6.36667 10.9264 6.66667C9.5691 6.5 12.148 6.13333 10.3496 6.2L10.6889 6.1C9.29764 5.43333 9.84057 6.76667 8.34751 6.9C8.10998 6.46667 9.33157 6.46667 8.27965 6.26667C6.95626 6.53333 6.41333 7.26667 5.05601 7.26667L5.25961 7.06667C4.37735 7.16667 2.71463 7.33333 1.8663 7.43333C1.79844 7.36667 1.93417 7.33333 2.10383 7.3C0.508981 7.3 1.45911 7.6 0.135717 7.43333L-0.203613 7.7C0.475048 7.76667 1.7645 7.83333 2.54496 7.5C1.7645 7.83333 3.90229 7.9 3.52902 8.33333L3.66475 8.16667C5.90434 8.56667 8.68684 8.3 11.4354 8.26667C13.0981 7.63333 14.3876 8.13333 16.22 7.63333C16.4575 7.1 16.5593 7.5 18.1202 7.23333C17.2719 7.4 18.0524 7.63333 18.5953 7.66667C18.9007 7.5 19.274 7.43333 19.6472 7.33333C19.9865 7.46667 22.0225 7.7 22.7351 7.3C23.7192 7.36667 22.5315 7.5 22.3279 7.6C22.7351 7.83333 23.1084 7.33333 23.4477 7.46667C23.4477 7.46667 23.4477 7.53333 23.3459 7.56667C24.839 7.4 25.7212 7.46667 27.2822 7.36667C27.35 6.83333 28.7752 7.03333 29.4539 6.8C29.2503 6.96667 30.3361 6.93333 30.7773 6.96667L31.5577 6.53333C32.3382 6.13333 32.7114 6.66667 33.7634 6.4L33.4919 6.33333C34.2384 6.13333 36.3083 6.26667 37.0888 6.46667C44.1469 4.96667 48.1849 6.23333 55.6841 5.56667C56.1592 5.4 55.3108 5.33333 55.6841 5.06667C56.4306 4.96667 56.6342 5 57.3129 4.93333C56.7021 4.83333 56.8039 5 56.8718 4.83333L55.8198 5.03333C55.8198 5.03333 55.8877 4.96667 55.7859 4.9C55.4126 4.96667 55.0055 5.1 54.5643 5.1C55.209 4.93333 55.3787 4.53333 56.2949 4.63333C56.227 4.7 56.1252 4.7 55.8877 4.76667C56.6342 4.76667 56.6682 4.56667 57.245 4.66667C57.9237 4.73333 57.754 4.6 57.8558 4.76667L59.9936 4.86667C61.0455 4.36667 62.3689 4.73333 62.7083 4.76667C62.5047 5.1 61.317 4.93333 60.808 5.3L61.5885 5.5V5.23333H62.7083L62.6404 5.3C62.6404 5.3 62.8779 5.06667 63.1833 5.16667C63.2173 5.2 63.353 5.26667 63.2172 5.3L63.9977 5.1C63.5566 5.4 64.6764 5.16667 64.5746 5.46667C67.1196 5.53333 67.7982 4.9 70.0378 5.26667C69.6645 5.13333 70.7164 4.73333 71.429 4.76667C71.8362 4.83333 71.938 4.9 71.7005 5.03333L72.5828 4.83333C73.7365 5.3 74.8223 4.93333 76.4851 5.06667L76.4172 5.2C77.028 5.03333 77.6727 4.86667 78.6228 4.9L78.4532 5.2C79.573 5.36667 79.3015 4.6 80.557 4.73333C80.557 4.43333 79.7426 4.3 79.6408 4C79.9462 4.3 81.2696 4.3 80.9642 4.1C82.2198 3.93333 81.8126 4.1 81.9483 4.16667L82.6609 3.96667C83.5431 3.96667 82.9324 4.36667 82.6609 4.53333C83.4753 4.16667 84.3575 4.4 85.2737 4.43333L84.9005 4.56667H86.122C86.9025 4.36667 88.0223 4.33333 89.0403 4.43333L88.3277 4.83333C89.0403 5.03333 88.701 4.7 88.8706 4.63333C89.9904 4.43333 90.2619 4.7 90.8387 4.9C92.6372 4.43333 94.4696 5.53333 96.0305 4.9L96.1662 5.06667ZM75.9761 7.66667H76.1457C75.7725 7.8 75.5689 7.9 75.9761 7.66667ZM85.9863 7.13333C84.7987 7.36667 85.1719 7.13333 85.0701 7.03333C86.2578 7.06667 86.9025 6.9 87.9544 6.96667C87.7848 6.9 87.7508 6.8 87.683 6.73333C88.0902 6.73333 88.5313 6.8 88.667 6.96667C88.192 7.4 85.4434 6.9 85.9524 7.1L85.9863 7.13333ZM69.5627 9.8C69.5627 9.8 69.8003 9.93333 69.9699 9.93333C69.8681 9.83333 69.7324 9.76667 69.5627 9.8ZM81.4393 9.53333C81.7108 9.66667 82.3555 9.6 82.7966 9.53333C82.593 9.53333 82.1858 9.53333 81.4393 9.53333ZM141.637 2.53333C142.01 2.5 142.688 2.36667 142.078 2.2C141.772 2.33333 141.229 2.03333 140.958 2.26667C140.958 2.26667 140.924 2.26667 140.89 2.26667C141.229 2.43333 141.535 2.56667 141.637 2.56667V2.53333ZM106.38 2.86667C106.38 2.86667 106.719 2.53333 106.55 2.4H106.652C106.652 2.4 106.482 2.3 106.55 2.26667C106.278 2.23333 105.973 2.2 105.769 2.26667C105.667 2.8 105.057 2.9 106.38 2.9V2.86667Z" fill="#EFA425"/>
<path d="M105.803 2.23333C105.803 2.23333 106.109 2.33333 106.516 2.4C106.448 2.33333 106.244 2.26667 105.803 2.23333Z" fill="#EFA425"/>
<path d="M44.1129 10L44.4522 9.93334L43.7396 9.83334C42.5859 10.1 42.552 10.3333 42.2805 10.6C43.2985 10.2667 43.9432 10.3667 45.3006 10.2L44.1129 10Z" fill="#EFA425"/>
<path d="M44.7915 11.7667C44.7915 11.7667 45.2326 12 45.4023 12L45.572 11.8333L44.8254 11.7667H44.7915Z" fill="#EFA425"/>
<path d="M58.6364 11.6667L57.5166 11.6C57.1773 11.7667 58.4667 11.9333 58.6364 11.6667Z" fill="#EFA425"/>
<path d="M53.5463 9.13334L52.9695 9.33334C53.5124 9.43334 54.1911 9.36667 54.2929 9.16667C53.6142 9.33334 54.1232 9.06667 53.5463 9.1V9.13334Z" fill="#EFA425"/>
<path d="M61.5884 11.5C61.9277 11.1667 62.7082 11.5667 62.9118 11.2667C62.6403 11.3667 61.6223 11.2 61.5884 11.5Z" fill="#EFA425"/>
<path d="M60.6044 8.5C60.2311 8.23333 59.6882 8.5 58.9756 8.5C59.5524 8.46667 60.4008 8.73333 60.6044 8.5Z" fill="#EFA425"/>
<path d="M67.4588 10.2C67.4249 10.4333 66.9498 10.4333 66.4408 10.4333C66.6105 10.3667 66.7123 10.2333 66.9498 10.2C66.1015 10.4333 66.0336 10.4 65.355 10.5667C66.0676 10.6667 67.1195 10.7333 67.0177 11C67.5267 10.7667 68.1375 10.4 67.4928 10.2333L67.4588 10.2Z" fill="#EFA425"/>
<path d="M62.3011 8.33334C61.7243 8.26667 61.351 8.1 60.6384 8.16667C60.7742 8.33334 61.0117 8.53334 61.8261 8.43334L61.5546 8.73333C62.3351 8.86667 61.2492 8.4 62.2672 8.33334H62.3011Z" fill="#EFA425"/>
<path d="M70.6824 10.6333L70.3092 10.5333C69.4948 10.8 68.4428 10.7667 68.0356 11.1333C69.0197 11.0667 70.2413 10.8333 70.6824 10.6333Z" fill="#EFA425"/>
<path d="M65.1855 8.66667L65.2873 8.3C64.4729 8.3 65.3552 8.43333 65.0837 8.53333C64.8462 8.5 64.5068 8.46667 64.3372 8.53333C65.2534 8.43333 64.405 8.83333 65.2194 8.66667H65.1855Z" fill="#EFA425"/>
<path d="M67.8322 8.06667L68.8502 7.83333L68.0019 7.46667C66.7803 7.7 67.9679 7.7 67.7983 8.06667H67.8322Z" fill="#EFA425"/>
<path d="M69.1216 8.23333L69.2573 8.3L70.7843 7.63333C69.8681 7.93333 69.8002 7.9 69.1216 8.23333Z" fill="#EFA425"/>
<path d="M88.2259 9.46667C88.3956 9.3 87.4454 9.16667 87.8526 9.3C87.683 9.43333 88.9046 9.56667 88.2259 9.46667Z" fill="#EFA425"/>
<path d="M84.2896 6.7C84.7308 6.8 86.1899 6.46667 86.8007 6.33333C86.0541 6.46667 84.1539 6.5 84.2896 6.7Z" fill="#EFA425"/>
<path d="M87.0722 6.26667C87.0722 6.26667 86.9365 6.3 86.8008 6.33333C86.9026 6.33333 87.0044 6.3 87.0722 6.26667Z" fill="#EFA425"/>
<path d="M113.879 3.73333C113.879 3.73333 114.015 3.73333 114.083 3.66667C114.015 3.66667 113.947 3.7 113.879 3.73333Z" fill="#EFA425"/>
<path d="M113.235 3.86667C112.793 3.86667 111.945 4 111.809 4.16667C112.488 4.03333 113.099 3.96667 113.879 3.73333C113.574 3.76667 113.201 3.66667 113.235 3.86667Z" fill="#EFA425"/>
<path d="M119.41 3.53333C119.105 3.66667 118.664 3.63333 118.766 3.76667C118.935 3.83333 119.614 3.6 119.41 3.53333Z" fill="#EFA425"/>
<path d="M136.716 1C136.139 0.9 135.766 0.933334 135.936 1.16667C136.614 1.16667 136.241 1.03333 136.716 1Z" fill="#EFA425"/>
<path d="M135.155 1.2L135.053 1.06667L134.68 0.9L135.155 1.2Z" fill="#EFA425"/>
<path d="M131.049 0.7C131.049 0.7 131.185 0.633334 131.287 0.6C131.049 0.6 130.846 0.633334 131.049 0.7Z" fill="#EFA425"/>
<path d="M131.694 0.666666L131.762 0.533333C131.762 0.533333 131.558 0.533333 131.457 0.566666C131.558 0.566666 131.694 0.566666 131.728 0.666666H131.694Z" fill="#EFA425"/>
<path d="M129.828 0.599999L130.608 0.999999C131.423 0.866666 129.692 0.766666 130.507 0.433332L129.828 0.633332V0.599999Z" fill="#EFA425"/>
<path d="M127.079 0.600001C126.333 0.466668 125.247 1 124.84 0.566668C122.702 0.733334 125.315 1.3 122.872 1.36667C125.145 1.66667 124.059 0.600001 126.095 0.900001C125.111 0.600001 126.774 0.700001 127.079 0.633334V0.600001Z" fill="#EFA425"/>
<path d="M127.419 1.33333C127.554 1.13333 126.604 1.06667 126.299 1.2C126.57 1.2 127.045 1.53333 127.419 1.33333Z" fill="#EFA425"/>
<path d="M122.939 0.666667L122.295 0.5L122.125 0.633333L122.939 0.666667Z" fill="#EFA425"/>
<path d="M120.496 0.5L121.141 0.266666C120.937 0.366666 119.987 0.333333 120.496 0.5Z" fill="#EFA425"/>
<path d="M117.069 0.133334C116.492 0.0333339 115.915 0.600001 117.171 0.500001H116.899C116.899 0.500001 116.289 0.166667 117.069 0.133334Z" fill="#EFA425"/>
<path d="M109.129 0.9C109.536 0.9 110.011 0.833334 109.943 0.733334L108.823 0.833334L109.129 0.9Z" fill="#EFA425"/>
<path d="M109.298 2.26667C109.672 2.6 110.35 2.26667 111.097 2.36667C110.248 2.3 110.35 2.23333 109.298 2.26667Z" fill="#EFA425"/>
<path d="M107.873 0.399999C108.178 0.266666 108.653 0.366666 108.925 0.399999C108.789 0.2 108.009 0.233333 107.873 0.399999Z" fill="#EFA425"/>
<path d="M106.075 0.500001C105.702 0.366667 106.143 0.300001 105.871 0.200001C105.091 0.0333339 104.276 0.0666673 103.801 0.233334C104.005 0.366667 104.276 0.766667 103.971 0.966667C105.226 0.866667 105.871 0.233334 106.482 0.733334L107.534 0.133334C106.516 0.0333339 106.753 0.533334 106.075 0.500001Z" fill="#EFA425"/>
<path d="M108.586 1.66667L107.907 1.46667C108.043 1.66667 107.534 1.7 107.161 1.76667C107.33 2.2 108.179 1.7 108.552 1.7L108.586 1.66667Z" fill="#EFA425"/>
<path d="M99.1185 0.733334L97.6934 0.866667H98.1684L99.1185 0.733334Z" fill="#EFA425"/>
<path d="M98.2023 0.600001L98.1684 0.466667L97.0825 0.7L98.2023 0.600001Z" fill="#EFA425"/>
<path d="M96.7092 0.466667H96.8789L97.7272 0.366667L96.7092 0.466667Z" fill="#EFA425"/>
<path d="M93.7571 0.4L94.0285 0.6C94.4018 0.566666 95.1144 0.766666 95.0465 0.5C94.7411 0.6 93.9946 0.566666 93.7571 0.4Z" fill="#EFA425"/>
<path d="M84.0183 5.2C84.2558 5.06667 84.1201 4.96667 83.9504 4.86667L83.5432 5.2C83.5432 5.2 83.9165 5.13334 83.9843 5.2H84.0183Z" fill="#EFA425"/>
<path d="M82.2875 4.73333L81.2356 5.13333C82.4572 5.13333 82.5929 4.86667 83.6788 4.8C83.2376 4.7 82.5929 4.96667 82.05 4.9L82.2875 4.76667V4.73333Z" fill="#EFA425"/>
<path d="M61.2492 5.2C61.3171 4.96667 61.1135 5 61.86 4.83333C60.8081 5.03333 59.858 5.03333 58.6364 5.1C58.84 5.23333 57.9577 5.53333 58.4328 5.43333L59.7901 5.23333L59.5865 5.4C60.5706 5.53333 60.1973 5.1 61.2153 5.2H61.2492Z" fill="#EFA425"/>
<path d="M6.10785 7.16667C6.10785 7.16667 6.03998 6.96667 5.87032 6.86667C5.05592 7.1 6.27751 7.1 6.10785 7.16667Z" fill="#EFA425"/>
</g>
<defs>
<clipPath id="clip0_337_6000">
<rect width="149" height="12" fill="white"/>
</clipPath>
</defs>
</svg>
